<svg width="217" height="389" viewBox="0 0 217 389" fill="none" xmlns="http://www.w3.org/2000/svg">
<path fill-rule="evenodd" clip-rule="evenodd" d="M132.587 2.23447C108.297 7.0087 86.5602 22.4832 76.0368 42.496C66.45 60.7251 63.9579 74.8417 63.9579 110.902V141.702H31.9789H0V175.984V210.267L31.4079 210.904L62.8158 211.54L63.4143 300.27L64.0104 389H102.789H141.569L142.165 300.27L142.763 211.54L174.171 210.904C191.835 210.544 205.579 209.324 205.579 208.11C205.579 205.88 211.6 162.28 213.72 149.143L214.924 141.702H178.271H141.621V112.859C141.621 68.9867 144.698 65.8359 189.018 64.3293L217 63.3767V33.0277V2.6764L202.959 1.20406C183.95 -0.785781 145.07 -0.217911 132.587 2.23447Z" fill="black"/>
</svg>
