<svg width="52" height="52" viewBox="0 0 52 52" fill="none" xmlns="http://www.w3.org/2000/svg">
<path d="M51.6231 13.1801C51.0286 15.8289 49.8568 18.3137 48.1912 20.4572C45.4155 24.0518 39.2045 32.1121 37.621 34.3062C35.6305 37.066 26.0212 51.9991 26.002 51.9991C25.9828 51.9991 16.3707 37.0681 14.3809 34.309C12.7981 32.1121 6.58709 24.0545 3.81069 20.4599C2.14525 18.3164 0.973407 15.8316 0.378796 13.1829C-0.586252 8.81734 -0.175112 3.06778 7.35583 0.591527C20.1664 -3.61543 25.932 16.128 26.0006 16.128C26.0692 16.128 31.8012 -3.62779 44.6454 0.590154C52.1763 3.06298 52.5875 8.81528 51.6231 13.1801Z" fill="black"/>
</svg>
