<svg width="380" height="378" viewBox="0 0 380 378" fill="none" xmlns="http://www.w3.org/2000/svg">
<path fill-rule="evenodd" clip-rule="evenodd" d="M89.2611 1.60265C55.1828 7.52322 26.9946 27.4912 12.7035 55.833C1.0149 79.0119 0 89.6698 0 189.191C0 269.01 0.542962 284.031 3.91299 297.375C13.5511 335.563 35.0657 359.309 72.1383 372.674C86.7731 377.952 87.8407 378 190 378C292.159 378 293.227 377.952 307.862 372.674C344.934 359.309 366.449 335.563 376.087 297.375C379.457 284.031 380 269.01 380 189.191C380 109.372 379.457 94.3523 376.087 81.0075C366.444 42.7995 344.852 18.9822 307.862 5.74957C293.408 0.577356 291.05 0.456063 196.873 0.0441174C143.951 -0.18703 95.5269 0.513277 89.2611 1.60265ZM301.337 39.9319C317.165 46.2851 329.757 58.3688 337.161 74.3111C344.652 90.4411 346.769 115.751 346.769 189.191C346.769 262.406 344.646 287.921 337.209 304.072C330.009 319.712 317.014 332.137 301.138 338.563C288.753 343.573 286.633 343.671 190 343.671C92.8419 343.671 91.3115 343.6 78.6103 338.467C51.7784 327.626 38.5182 306.623 35.2169 269.743C32.651 241.071 32.651 137.311 35.2169 108.64C39.0429 65.8914 57.066 43.303 93.252 35.9109C98.5808 34.8215 144.696 34.1212 195.727 34.3569C286.111 34.7712 288.844 34.9153 301.337 39.9319ZM275.735 72.2971C263.916 84.104 268.017 101.451 284.23 108.219C290.867 110.988 293.03 110.988 299.667 108.219C315.365 101.667 319.617 85.3375 308.927 72.6496C303.926 66.713 301.383 65.6076 292.714 65.6076C284.404 65.6076 281.147 66.8915 275.735 72.2971ZM166.185 94.4049C141.587 101.012 122.102 114.908 107.923 135.961C96.118 153.487 91.9667 170.013 93.0573 195.146C93.8247 212.814 95.0573 218.197 101.186 230.619C120.286 269.333 164.009 292.782 204.257 285.896C232.463 281.069 256.367 265.745 272.077 242.422C283.882 224.896 288.033 208.37 286.943 183.236C286.175 165.569 284.943 160.186 278.814 147.763C257.886 105.342 209.968 82.6416 166.185 94.4049ZM218.422 133.011C231.366 139.563 242.759 151.844 249.027 165.999C252.608 174.084 253.334 179.621 252.502 192.434C251.362 209.997 247.726 218.938 236.555 231.647C212.667 258.826 167.333 258.826 143.445 231.647C132.274 218.938 128.638 209.997 127.498 192.434C126.666 179.621 127.392 174.084 130.973 165.999C139.47 146.809 156.293 132.37 176.254 127.134C187.129 124.282 206.511 126.983 218.422 133.011Z" fill="black"/>
</svg>
