<svg width="215" height="29" viewBox="0 0 215 29" fill="none" xmlns="http://www.w3.org/2000/svg">
<g clip-path="url(#clip0_2_2)">
<path d="M0.123791 2.4192L7.51039 0.557037C9.79557 3.64408 12.3624 7.47185 15.2108 12.0403C15.0499 9.1271 15.0137 5.49382 15.1021 1.14051C18.8518 0.801187 21.6238 0.817739 23.4181 1.19017C23.6756 11.0306 23.6756 19.7125 23.4181 27.2355C20.8353 28.2949 18.7593 28.8204 17.1902 28.8122C14.8889 25.2369 11.8957 20.9952 8.21043 16.0875L8.2225 28.7998C3.86135 29.0066 1.15775 28.9735 0.111721 28.7005C-0.0411605 20.987 -0.0371373 12.2266 0.123791 2.4192Z" fill="black"/>
<path d="M29.8822 26.6024C27.959 25.212 26.5832 23.1967 25.7543 20.5566C25.3279 18.9179 25.1348 17.2751 25.175 15.6281C26.0521 5.82901 31.0006 0.63566 40.0207 0.0480466C43.722 -0.274728 46.7675 1.02878 49.1574 3.95858C50.2839 5.7297 50.9517 7.70772 51.1609 9.89265C51.3782 12.2845 51.1005 14.7674 50.328 17.3413C49.3464 20.1553 48.0349 22.3815 46.3934 24.0202C41.2115 29.0274 35.7078 29.8881 29.8822 26.6024ZM42.857 12.1024C42.2375 10.1161 40.8857 9.19745 38.8016 9.34642C37.0234 9.40436 35.583 10.1492 34.4807 11.581C33.2657 13.3935 32.9559 15.1977 33.5514 16.9937C34.5088 18.9635 35.9089 19.8365 37.7516 19.6131C39.9482 19.2159 41.5414 17.8502 42.5311 15.5163C42.9978 14.2832 43.1065 13.1452 42.857 12.1024Z" fill="black"/>
<path d="M53.1351 2.84128C55.1145 1.83986 57.9468 1.11154 61.6321 0.656351C67.6025 0.0190796 71.513 1.49226 73.3637 5.07587C74.4982 7.91463 73.6292 10.683 70.7567 13.381C73.7257 14.788 75.2063 16.6047 75.1983 18.8311C75.1902 21.0491 74.5828 22.725 73.3758 23.8588C72.7482 24.5374 72.0562 25.0961 71.2998 25.5348C68.033 27.4715 64.2351 28.5349 59.9061 28.7252C58.6509 28.8494 56.4019 28.9197 53.1591 28.9363C52.9259 20.6022 52.9177 11.9038 53.1351 2.84128ZM60.0027 11.5562C63.5592 11.5562 65.2368 10.7203 65.0356 9.04848C64.9552 8.27051 64.5206 7.79462 63.7321 7.62082C62.6056 7.47184 61.3142 7.59186 59.8579 7.98084C59.8418 9.19745 59.89 10.3892 60.0027 11.5562ZM59.9544 21.7484C64.227 21.9056 66.3191 20.9332 66.2306 18.8311C66.0375 17.9703 65.4621 17.4779 64.5046 17.3537C63.354 17.1881 61.801 17.4075 59.8458 18.0116C59.8216 19.3773 59.8579 20.6228 59.9544 21.7484Z" fill="black"/>
<path d="M84.6074 1.01636L84.6435 20.358C88.8678 19.8945 92.2715 19.5966 94.8544 19.4642C94.9187 22.1704 94.8947 24.6823 94.782 26.9997C90.5174 27.6452 84.5269 28.2204 76.8103 28.7252C76.6172 20.6807 76.6534 11.6679 76.919 1.68674C79.6788 1.08257 82.2417 0.859116 84.6074 1.01636Z" fill="black"/>
<path d="M114.993 0.0356369C115.194 2.60955 115.186 5.08416 114.969 7.45944L104.312 8.48983L104.36 11.0844L114.571 10.1782L114.583 17.2917C114.172 17.3827 110.797 17.7055 104.456 18.2599L104.468 20.7056C111.083 19.9524 114.603 19.5925 115.029 19.6256C115.231 22.5223 115.235 24.9306 115.041 26.8507C110.704 27.5377 104.577 28.0797 96.6595 28.4769C96.402 20.4242 96.3859 11.5479 96.6112 1.84814C103.628 0.838433 109.755 0.234267 114.993 0.0356369Z" fill="black"/>
<path d="M124.535 18.0862C122.893 18.0697 121.534 17.6806 120.455 16.9192C118.959 15.8682 118.054 14.7798 117.74 13.6542C116.726 10.3768 117.076 7.37254 118.79 4.64138C122.129 -0.299547 128.164 -1.23476 136.894 1.83572L135.337 8.73812C128.144 7.16563 124.724 7.48428 125.078 9.69404C125.287 10.5961 126.003 10.9769 127.226 10.8362C128.385 10.7203 129.479 10.6789 130.509 10.712C132.159 10.7286 133.523 11.1176 134.602 11.879C136.098 12.9383 137.003 14.0266 137.317 15.144C138.33 18.4214 137.981 21.4256 136.266 24.1568C132.855 29.1805 126.442 30.0537 117.028 26.7763L118.585 19.9359C126.462 21.4174 130.26 21.1401 129.978 19.1041C129.778 18.2186 129.066 17.8379 127.842 17.962C126.748 18.0531 125.645 18.0944 124.535 18.0862Z" fill="black"/>
<path d="M139.883 2.4192L147.269 0.557037C149.554 3.64408 152.121 7.47185 154.969 12.0403C154.808 9.1271 154.772 5.49382 154.861 1.14051C158.611 0.801187 161.383 0.817739 163.176 1.19017C163.434 11.0306 163.434 19.7125 163.176 27.2355C160.593 28.2949 158.518 28.8204 156.949 28.8122C154.647 25.2369 151.654 20.9952 147.969 16.0875L147.981 28.7998C143.62 29.0066 140.916 28.9735 139.87 28.7005C139.718 20.987 139.722 12.2266 139.883 2.4192Z" fill="black"/>
<path d="M169.64 26.6024C167.718 25.212 166.342 23.1967 165.513 20.5566C165.087 18.9179 164.893 17.2751 164.933 15.6281C165.81 5.82901 170.759 0.63566 179.779 0.0480466C183.48 -0.274728 186.526 1.02878 188.915 3.95858C190.042 5.7297 190.71 7.70772 190.919 9.89266C191.136 12.2845 190.859 14.7674 190.087 17.3413C189.105 20.1553 187.793 22.3815 186.151 24.0202C180.969 29.0274 175.466 29.8881 169.64 26.6024ZM182.615 12.1024C181.996 10.1161 180.644 9.19745 178.559 9.34642C176.781 9.40436 175.341 10.1492 174.239 11.581C173.024 13.3935 172.715 15.1977 173.309 16.9937C174.267 18.9635 175.668 19.8365 177.51 19.6131C179.707 19.2159 181.3 17.8502 182.289 15.5163C182.756 14.2832 182.865 13.1452 182.615 12.1024Z" fill="black"/>
<path d="M192.894 2.84128C194.872 1.83986 197.705 1.11154 201.391 0.656351C207.36 0.0190796 211.272 1.49226 213.122 5.07587C214.257 7.91463 213.388 10.683 210.515 13.381C213.485 14.788 214.965 16.6047 214.956 18.8311C214.949 21.0491 214.341 22.725 213.135 23.8588C212.506 24.5374 211.815 25.0961 211.058 25.5348C207.792 27.4715 203.994 28.5349 199.664 28.7252C198.409 28.8494 196.16 28.9197 192.918 28.9363C192.684 20.6022 192.676 11.9038 192.894 2.84128ZM199.761 11.5562C203.318 11.5562 204.995 10.7203 204.795 9.04848C204.714 8.27051 204.28 7.79462 203.49 7.62082C202.364 7.47184 201.073 7.59186 199.617 7.98084C199.6 9.19745 199.649 10.3892 199.761 11.5562ZM199.713 21.7484C203.985 21.9056 206.077 20.9332 205.989 18.8311C205.796 17.9703 205.221 17.4779 204.263 17.3537C203.112 17.1881 201.559 17.4075 199.604 18.0116C199.581 19.3773 199.617 20.6228 199.713 21.7484Z" fill="black"/>
</g>
<defs>
<clipPath id="clip0_2_2">
<rect width="215" height="29" fill="white"/>
</clipPath>
</defs>
</svg>
