<svg width="472" height="397" viewBox="0 0 472 397" fill="none" xmlns="http://www.w3.org/2000/svg">
<path fill-rule="evenodd" clip-rule="evenodd" d="M433.19 4.41565C425.643 7.42167 334.051 42.8506 229.652 83.1445C3.46842 170.443 11.6991 167.137 5.08299 173.359C-1.19466 179.264 -1.70923 186.874 3.82746 191.89C6.03436 193.891 33.8413 203.832 65.6161 213.983L123.393 232.438L249.962 152.32C372.007 75.0674 390.6 64.7352 388.189 75.5093C387.782 77.3271 343.198 118.621 289.112 167.274C235.026 215.927 189.344 257.116 187.597 258.808C185.287 261.042 183.412 276.908 180.725 317L177.027 372.118H182.429C185.976 372.118 193.445 366.77 204.168 356.557C241.139 321.339 249.736 313.75 252.388 313.99C253.918 314.13 279.173 331.987 308.505 353.673C337.84 375.356 364.325 394.044 367.362 395.201C381.134 400.443 393.646 393.944 397.721 379.435C399.029 374.781 409.787 325.128 421.627 269.094C433.469 213.06 450.028 134.84 458.426 95.2716C471.843 32.0651 473.389 22.3007 471.157 14.8417C469.76 10.1736 467.169 5.15056 465.401 3.68075C459.197 -1.47275 447.293 -1.2026 433.19 4.41565Z" fill="black"/>
</svg>
